<svg width="125" height="119" viewBox="0 0 125 119" fill="none" xmlns="http://www.w3.org/2000/svg">
<g clip-path="url(#clip0_11_1721)">
<path fill-rule="evenodd" clip-rule="evenodd" d="M65.7757 43.1737C65.7757 39.8746 68.2644 37.1809 71.2135 35.7024C77.3056 32.6482 81.4873 26.346 81.4873 19.0671C81.4873 8.79606 73.161 0.469727 62.89 0.469727C52.6189 0.469727 44.2926 8.79606 44.2926 19.0671C44.2926 26.3588 48.4889 32.6703 54.5984 35.7184C57.5319 37.182 60.0041 39.8594 60.0041 43.1377C60.0041 48.2074 54.5599 51.4136 50.1264 48.955L49.8725 48.8143C46.9335 47.1845 45.761 43.6362 45.8834 40.2778C45.8917 40.049 45.8959 39.8192 45.8959 39.5884C45.8959 29.3173 37.5696 20.991 27.2985 20.991C17.0275 20.991 8.70113 29.3173 8.70113 39.5884C8.70113 49.8594 17.0275 58.1857 27.2985 58.1857C31.2646 58.1857 34.9408 56.9442 37.9595 54.8286C40.5724 52.9974 44.0176 52.1671 46.808 53.7145C51.2616 56.1842 51.1675 62.6404 46.7138 65.1102C43.9542 66.6405 40.5088 65.8977 37.8782 64.1547C34.9376 62.2063 31.4109 61.0716 27.6192 61.0716C17.3481 61.0716 9.02177 69.3979 9.02177 79.6689C9.02177 89.94 17.3481 98.2663 27.6192 98.2663C37.8902 98.2663 46.2166 89.94 46.2166 79.6689C46.2166 79.2684 46.2039 78.8708 46.179 78.4765C45.9654 75.1023 47.0978 71.4968 50.0546 69.8572C54.5204 67.3808 60.0041 70.6283 60.0041 75.7348C60.0041 79.0449 57.5067 81.7564 54.5492 83.243C48.4664 86.3004 44.2926 92.5976 44.2926 99.8696C44.2926 110.141 52.6189 118.467 62.89 118.467C73.161 118.467 81.4873 110.141 81.4873 99.8696C81.4873 92.6103 77.3281 86.3224 71.2627 83.2591C68.2896 81.7575 65.7757 79.0387 65.7757 75.708C65.7757 70.5574 71.3776 67.3392 75.8819 69.837C78.8536 71.4849 80.0551 75.1084 79.9032 78.503C79.8907 78.7832 79.8843 79.065 79.8843 79.3483C79.8843 89.6194 88.2107 97.9457 98.4817 97.9457C108.753 97.9457 117.079 89.6194 117.079 79.3483C117.079 69.0772 108.753 60.7509 98.4817 60.7509C94.5786 60.7509 90.9562 61.9533 87.965 64.008C85.3576 65.7989 81.9444 66.5993 79.178 65.0652C74.7187 62.5923 74.7187 56.1801 79.178 53.7072L79.4377 53.5632C82.2243 52.0179 85.6584 52.7872 88.3263 54.5295C91.246 56.4362 94.7344 57.5445 98.4817 57.5445C108.753 57.5445 117.079 49.2182 117.079 38.9471C117.079 28.6761 108.753 20.3497 98.4817 20.3497C88.2107 20.3497 79.8843 28.6761 79.8843 38.9471C79.8843 39.3214 79.8954 39.6931 79.9172 40.0619C80.1217 43.5207 78.9708 47.2225 75.9407 48.9028L75.7157 49.0276C71.2542 51.5016 65.7757 48.2752 65.7757 43.1737Z" fill="black"/>
</g>
<defs>
<clipPath id="clip0_11_1721">
<rect width="123.93" height="117.997" fill="white" transform="translate(0.790375 0.469727)"/>
</clipPath>
</defs>
</svg>
