<svg width="130" height="130" viewBox="0 0 130 130" fill="none" xmlns="http://www.w3.org/2000/svg">
<rect width="130" height="130" rx="65" fill="black"/>
<path fill-rule="evenodd" clip-rule="evenodd" d="M68.0746 48.704C68.0746 45.4049 70.5633 42.7112 73.5124 41.2327C79.6045 38.1785 83.7862 31.8763 83.7862 24.5974C83.7862 14.3263 75.4599 6 65.1889 6C54.9178 6 46.5915 14.3263 46.5915 24.5974C46.5915 31.8891 50.7878 38.2006 56.8973 41.2487C59.8308 42.7123 62.303 45.3897 62.303 48.668C62.303 53.7377 56.8588 56.9439 52.4253 54.4853L52.1714 54.3446C49.2324 52.7148 48.0599 49.1665 48.1823 45.8081C48.1906 45.5793 48.1948 45.3495 48.1948 45.1187C48.1948 34.8476 39.8685 26.5213 29.5974 26.5213C19.3264 26.5213 11 34.8476 11 45.1187C11 55.3897 19.3264 63.716 29.5974 63.716C33.5635 63.716 37.2397 62.4745 40.2584 60.3589C42.8713 58.5277 46.3165 57.6974 49.1069 59.2448C53.5605 61.7145 53.4664 68.1707 49.0127 70.6405C46.2531 72.1708 42.8077 71.428 40.1771 69.685C37.2365 67.7366 33.7098 66.6019 29.9181 66.6019C19.647 66.6019 11.3206 74.9282 11.3206 85.1992C11.3206 95.4703 19.647 103.797 29.9181 103.797C40.1891 103.797 48.5155 95.4703 48.5155 85.1992C48.5155 84.7987 48.5028 84.4011 48.4779 84.0068C48.2643 80.6326 49.3967 77.0271 52.3535 75.3875C56.8193 72.9111 62.303 76.1586 62.303 81.2651C62.303 84.5752 59.8056 87.2867 56.8481 88.7733C50.7653 91.8307 46.5915 98.1279 46.5915 105.4C46.5915 115.671 54.9178 123.997 65.1889 123.997C75.4599 123.997 83.7862 115.671 83.7862 105.4C83.7862 98.1406 79.627 91.8527 73.5616 88.7894C70.5885 87.2878 68.0746 84.569 68.0746 81.2383C68.0746 76.0877 73.6765 72.8695 78.1808 75.3673C81.1525 77.0152 82.354 80.6387 82.2021 84.0333C82.1896 84.3135 82.1832 84.5953 82.1832 84.8786C82.1832 95.1497 90.5096 103.476 100.781 103.476C111.052 103.476 119.378 95.1497 119.378 84.8786C119.378 74.6075 111.052 66.2812 100.781 66.2812C96.8775 66.2812 93.2551 67.4836 90.2639 69.5383C87.6565 71.3292 84.2433 72.1296 81.4769 70.5955C77.0176 68.1226 77.0176 61.7104 81.4769 59.2375L81.7366 59.0935C84.5232 57.5482 87.9573 58.3175 90.6252 60.0598C93.5449 61.9665 97.0333 63.0748 100.781 63.0748C111.052 63.0748 119.378 54.7485 119.378 44.4774C119.378 34.2064 111.052 25.88 100.781 25.88C90.5096 25.88 82.1832 34.2064 82.1832 44.4774C82.1832 44.8517 82.1943 45.2234 82.2161 45.5922C82.4206 49.051 81.2697 52.7528 78.2396 54.4331L78.0146 54.5579C73.5531 57.0319 68.0746 53.8055 68.0746 48.704Z" fill="white"/>
</svg>
