<svg width="357" height="135" viewBox="0 0 357 135" fill="none" xmlns="http://www.w3.org/2000/svg">
<mask id="mask0_11_14" style="mask-type:luminance" maskUnits="userSpaceOnUse" x="0" y="16" width="125" height="119">
<path d="M124.72 16.4697H0.790375V134.467H124.72V16.4697Z" fill="white"/>
</mask>
<g mask="url(#mask0_11_14)">
<path fill-rule="evenodd" clip-rule="evenodd" d="M65.7757 59.1737C65.7757 55.8746 68.2644 53.1809 71.2135 51.7024C77.3056 48.6482 81.4873 42.346 81.4873 35.0671C81.4873 24.7961 73.161 16.4697 62.89 16.4697C52.6189 16.4697 44.2926 24.7961 44.2926 35.0671C44.2926 42.3588 48.4889 48.6703 54.5984 51.7184C57.5319 53.182 60.0041 55.8594 60.0041 59.1377C60.0041 64.2074 54.5599 67.4136 50.1264 64.955L49.8725 64.8143C46.9335 63.1845 45.761 59.6362 45.8834 56.2778C45.8917 56.049 45.8959 55.8192 45.8959 55.5884C45.8959 45.3173 37.5696 36.991 27.2985 36.991C17.0275 36.991 8.70113 45.3173 8.70113 55.5884C8.70113 65.8594 17.0275 74.1857 27.2985 74.1857C31.2646 74.1857 34.9408 72.9442 37.9595 70.8286C40.5724 68.9974 44.0176 68.1671 46.808 69.7145C51.2616 72.1842 51.1675 78.6404 46.7138 81.1102C43.9542 82.6405 40.5088 81.8977 37.8782 80.1547C34.9376 78.2063 31.4109 77.0716 27.6192 77.0716C17.3481 77.0716 9.02177 85.3979 9.02177 95.6689C9.02177 105.94 17.3481 114.266 27.6192 114.266C37.8902 114.266 46.2166 105.94 46.2166 95.6689C46.2166 95.2684 46.2039 94.8708 46.179 94.4765C45.9654 91.1023 47.0978 87.4968 50.0546 85.8572C54.5204 83.3808 60.0041 86.6283 60.0041 91.7348C60.0041 95.0449 57.5067 97.7564 54.5492 99.243C48.4664 102.3 44.2926 108.598 44.2926 115.87C44.2926 126.141 52.6189 134.467 62.89 134.467C73.161 134.467 81.4873 126.141 81.4873 115.87C81.4873 108.61 77.3281 102.322 71.2627 99.2591C68.2896 97.7575 65.7757 95.0387 65.7757 91.708C65.7757 86.5574 71.3776 83.3392 75.8819 85.837C78.8536 87.4849 80.0551 91.1084 79.9032 94.503C79.8907 94.7832 79.8843 95.065 79.8843 95.3483C79.8843 105.619 88.2107 113.946 98.4817 113.946C108.753 113.946 117.079 105.619 117.079 95.3483C117.079 85.0772 108.753 76.7509 98.4817 76.7509C94.5786 76.7509 90.9562 77.9533 87.965 80.008C85.3576 81.7989 81.9444 82.5993 79.178 81.0652C74.7187 78.5923 74.7187 72.1801 79.178 69.7072L79.4377 69.5632C82.2243 68.0179 85.6584 68.7872 88.3263 70.5295C91.246 72.4362 94.7344 73.5445 98.4817 73.5445C108.753 73.5445 117.079 65.2182 117.079 54.9471C117.079 44.6761 108.753 36.3497 98.4817 36.3497C88.2107 36.3497 79.8843 44.6761 79.8843 54.9471C79.8843 55.3214 79.8954 55.6931 79.9172 56.0619C80.1217 59.5207 78.9708 63.2225 75.9407 64.9028L75.7157 65.0276C71.2542 67.5016 65.7757 64.2752 65.7757 59.1737Z" fill="white"/>
</g>
<path d="M156.816 100.152C152.912 100.152 149.392 99.576 146.256 98.424C143.184 97.208 140.56 95.48 138.384 93.24C136.272 91 134.64 88.28 133.488 85.08C132.336 81.88 131.76 78.264 131.76 74.232C131.76 70.2 132.336 66.584 133.488 63.384C134.64 60.184 136.272 57.464 138.384 55.224C140.56 52.984 143.184 51.288 146.256 50.136C149.392 48.92 152.88 48.312 156.72 48.312C162.16 48.312 166.512 49.432 169.776 51.672C173.104 53.848 175.632 56.76 177.36 60.408L166.416 66.36C165.52 64.44 164.336 62.84 162.864 61.56C161.456 60.28 159.408 59.64 156.72 59.64C153.456 59.64 150.928 60.6 149.136 62.52C147.408 64.376 146.544 66.936 146.544 70.2V78.264C146.544 81.528 147.408 84.12 149.136 86.04C150.928 87.896 153.52 88.824 156.912 88.824C159.664 88.824 161.808 88.184 163.344 86.904C164.944 85.624 166.288 83.96 167.376 81.912L178.128 88.056C176.336 91.704 173.712 94.648 170.256 96.888C166.864 99.064 162.384 100.152 156.816 100.152ZM220.715 89.976H220.139C219.051 92.792 217.323 95.192 214.955 97.176C212.651 99.16 209.515 100.152 205.547 100.152C203.179 100.152 201.003 99.768 199.019 99C197.035 98.168 195.339 96.952 193.931 95.352C192.523 93.752 191.403 91.8 190.571 89.496C189.803 87.192 189.419 84.536 189.419 81.528V49.464H203.627V79.608C203.627 86.008 206.411 89.208 211.979 89.208C213.067 89.208 214.123 89.08 215.147 88.824C216.235 88.504 217.163 88.056 217.931 87.48C218.763 86.84 219.435 86.072 219.947 85.176C220.459 84.28 220.715 83.224 220.715 82.008V49.464H234.923V99H220.715V89.976ZM269.349 100.152C263.845 100.152 259.045 99.32 254.949 97.656C250.917 95.992 247.877 93.72 245.829 90.84L253.797 83.448C255.717 85.56 257.957 87.224 260.517 88.44C263.141 89.592 266.117 90.168 269.445 90.168C272.261 90.168 274.469 89.752 276.069 88.92C277.669 88.024 278.469 86.68 278.469 84.888C278.469 83.48 277.925 82.52 276.837 82.008C275.749 81.432 274.245 80.984 272.325 80.664L264.357 79.416C262.117 79.096 260.037 78.616 258.117 77.976C256.197 77.272 254.533 76.344 253.125 75.192C251.717 74.04 250.597 72.632 249.765 70.968C248.933 69.304 248.517 67.288 248.517 64.92C248.517 59.736 250.501 55.672 254.469 52.728C258.437 49.784 264.005 48.312 271.173 48.312C276.037 48.312 280.165 48.984 283.557 50.328C287.013 51.608 289.765 53.464 291.813 55.896L284.709 63.96C283.237 62.36 281.349 61.016 279.045 59.928C276.741 58.84 273.957 58.296 270.693 58.296C265.189 58.296 262.437 59.96 262.437 63.288C262.437 64.76 262.981 65.784 264.069 66.36C265.157 66.872 266.661 67.288 268.581 67.608L276.453 68.856C278.693 69.176 280.773 69.688 282.693 70.392C284.613 71.032 286.277 71.928 287.685 73.08C289.157 74.232 290.309 75.64 291.141 77.304C291.973 78.968 292.389 80.984 292.389 83.352C292.389 88.536 290.373 92.632 286.341 95.64C282.373 98.648 276.709 100.152 269.349 100.152ZM328.832 100.152C320.512 100.152 314.208 97.848 309.92 93.24C305.632 88.632 303.488 82.36 303.488 74.424C303.488 70.392 304.032 66.776 305.12 63.576C306.272 60.312 307.872 57.56 309.92 55.32C312.032 53.016 314.56 51.288 317.504 50.136C320.512 48.92 323.872 48.312 327.584 48.312C331.296 48.312 334.624 48.92 337.568 50.136C340.512 51.288 343.008 52.952 345.056 55.128C347.104 57.304 348.672 59.96 349.76 63.096C350.912 66.168 351.488 69.624 351.488 73.464V77.688H317.6V78.552C317.6 81.752 318.592 84.344 320.576 86.328C322.56 88.248 325.472 89.208 329.312 89.208C332.256 89.208 334.784 88.664 336.896 87.576C339.008 86.424 340.832 84.92 342.368 83.064L350.048 91.416C348.128 93.784 345.44 95.832 341.984 97.56C338.528 99.288 334.144 100.152 328.832 100.152ZM327.68 58.488C324.608 58.488 322.144 59.448 320.288 61.368C318.496 63.224 317.6 65.752 317.6 68.952V69.72H337.568V68.952C337.568 65.688 336.672 63.128 334.88 61.272C333.152 59.416 330.752 58.488 327.68 58.488Z" fill="white"/>
</svg>
